<svg width="67" height="20" viewBox="0 0 67 20" fill="none" xmlns="http://www.w3.org/2000/svg">
<path d="M65.7679 5.83739C65.2167 3.47114 63.7664 -0.597712 60.463 0.55488C57.7236 1.51155 57.6939 6.2695 57.5709 8.64083C57.4394 11.1716 57.2868 20.3415 61.0524 19.959C64.7629 19.5828 66.2768 16.3138 66.3701 13.0519C66.438 10.6348 66.315 8.18583 65.7679 5.83739Z" fill="#3F3F3F"/>
<path d="M1.23206 5.83739C1.78334 3.47114 3.2336 -0.597712 6.53702 0.55488C9.27643 1.51155 9.30613 6.2695 9.4291 8.64083C9.56056 11.1716 9.71324 20.3415 5.9476 19.959C2.23709 19.5828 0.723182 16.3138 0.629889 13.0519C0.562039 10.6348 0.685025 8.18583 1.23206 5.83739Z" fill="#3F3F3F"/>
</svg>
